<?xml version="1.0" encoding="utf-8"?>
<!-- Generator: Adobe Illustrator 16.0.0, SVG Export Plug-In . SVG Version: 6.00 Build 0)  -->
<!DOCTYPE svg PUBLIC "-//W3C//DTD SVG 1.1//EN" "http://www.w3.org/Graphics/SVG/1.1/DTD/svg11.dtd">
<svg version="1.1" id="Capa_1" xmlns="http://www.w3.org/2000/svg" xmlns:xlink="http://www.w3.org/1999/xlink" x="0px" y="0px"
	 width="36px" height="48px" viewBox="0 0 36 48" enable-background="new 0 0 36 48" xml:space="preserve">
<path fill="#211915" d="M2.896,28.398c0.07-0.354,0.121-0.711,0.212-1.058c0.661-2.484,2.201-4.182,4.601-5.098
	c0.413-0.158,0.416-0.15,0.42-0.615c0.01-1.228,0.694-2.203,1.823-2.549c0.288-0.088,0.602-0.12,0.905-0.123
	c1.245-0.014,2.491-0.012,3.735-0.005c1.644,0.01,2.738,1.113,2.742,2.755c0,0.27,0.003,0.539-0.001,0.809
	c-0.01,0.523-0.306,0.83-0.83,0.849c-0.334,0.01-0.67-0.016-1.003,0.011c-0.125,0.009-0.285,0.085-0.359,0.183
	c-0.588,0.77-0.833,1.8-0.679,2.777c0.038,0.009,0.08,0.029,0.123,0.029c0.985-0.005,1.972,0.03,2.954-0.028
	c2.097-0.125,3.815-1.938,3.877-4.042c0.02-0.678-0.016-1.359,0.046-2.033c0.151-1.671,1.326-3.032,2.941-3.471
	c0.068-0.019,0.134-0.044,0.189-0.118c-0.576,0.069-1.153,0.14-1.729,0.209c-0.249,0.029-0.498,0.073-0.747,0.084
	c-0.432,0.021-0.773-0.27-0.815-0.672c-0.044-0.415,0.21-0.774,0.641-0.837c0.854-0.124,1.713-0.222,2.569-0.329
	c0.212-0.026,0.425-0.047,0.636-0.077c0.608-0.089,0.857,0.05,1.091,0.624c0.296-0.155,0.589-0.31,0.884-0.462
	c1.085-0.562,2.351,0.186,2.372,1.408c0.006,0.333,0.022,0.676-0.045,0.998c-0.221,1.063-1.357,1.584-2.321,1.089
	c-0.287-0.147-0.572-0.299-0.89-0.465c-0.007,0.122-0.017,0.209-0.017,0.298c-0.001,0.929,0.003,1.858-0.004,2.787
	c-0.001,0.182,0.045,0.307,0.191,0.428c0.809,0.668,1.609,1.35,2.412,2.025c0.61,0.515,0.617,0.947,0.003,1.482
	c0.078,0.055,0.15,0.105,0.223,0.155c1.497,1.037,2.305,2.461,2.394,4.281c0.031,0.63-0.273,0.931-0.896,0.935
	c-0.102,0-0.203,0-0.32,0c-0.281,1.161-0.899,2.079-1.911,2.711c-0.738,0.461-1.548,0.67-2.416,0.624
	c-1.716-0.089-3.407-1.261-3.901-3.332c-0.583,0.03-1.141-0.01-1.227-0.789h-7.576c-0.076,1.392-0.64,2.526-1.775,3.347
	c-0.814,0.589-1.733,0.841-2.731,0.771c-1.879-0.134-3.757-1.604-3.902-4.135c-0.298,0-0.601-0.013-0.902,0.003
	c-0.471,0.024-0.812-0.146-0.988-0.598V28.398z M13.43,23.383c-0.083-0.008-0.137-0.017-0.191-0.017
	c-1.068-0.001-2.137-0.014-3.206,0.004c-2.327,0.036-4.366,1.457-5.206,3.629c-0.155,0.401-0.245,0.829-0.372,1.271h9.021
	c-0.383-0.782-0.597-1.579-0.606-2.43C12.861,24.982,13.062,24.172,13.43,23.383 M24.69,18.315c-0.099,0.03-0.154,0.041-0.203,0.063
	c-0.94,0.441-1.466,1.174-1.514,2.218c-0.034,0.732,0.005,1.47-0.061,2.199c-0.228,2.535-2.405,4.769-4.935,5.037
	c-0.855,0.091-1.724,0.049-2.587,0.067c-0.095,0.002-0.19,0-0.299,0c0.111,0.302,0.277,0.397,0.564,0.394
	c1.208-0.017,2.415-0.007,3.623-0.007h1.714c0.021-0.033,0.036-0.047,0.041-0.063c0.764-2.376,3.228-4.058,5.915-3.625
	c0.092,0.015,0.194-0.038,0.348-0.071c-0.117-0.107-0.175-0.165-0.237-0.217c-0.674-0.569-1.347-1.141-2.025-1.704
	c-0.23-0.191-0.357-0.419-0.344-0.723c0.008-0.176,0.001-0.353,0.001-0.529C24.69,20.353,24.69,19.351,24.69,18.315 M29.797,29.08
	c-0.208-1.64-1.94-3.035-3.714-3.01c-1.782,0.024-3.498,1.433-3.65,3.01H29.797z M6.341,29.843c0.077,1.049,0.537,1.828,1.444,2.288
	c0.969,0.492,1.928,0.406,2.804-0.24c0.676-0.5,1.017-1.19,1.048-2.048H6.341z M9.69,21.804h6.073
	c0.087-0.76-0.34-1.308-1.049-1.314c-1.326-0.014-2.653-0.015-3.979,0C10.026,20.496,9.578,21.074,9.69,21.804 M23.645,30.64
	c0.214,1.063,1.46,1.866,2.723,1.777c1.013-0.07,2.151-0.988,2.2-1.777H23.645z M27.927,17.387v-0.859
	c-0.287,0.15-0.526,0.276-0.816,0.43C27.397,17.107,27.642,17.236,27.927,17.387"/>
<path fill="#FFFFFF" d="M13.43,23.383c-0.368,0.789-0.569,1.6-0.56,2.458c0.009,0.851,0.223,1.647,0.606,2.43H4.456
	c0.127-0.442,0.217-0.87,0.372-1.271c0.839-2.172,2.878-3.593,5.206-3.629c1.068-0.018,2.137-0.005,3.206-0.004
	C13.293,23.366,13.347,23.375,13.43,23.383"/>
<path fill="#FFFFFF" d="M24.69,18.315c0,1.035,0,2.037,0,3.039c0,0.177,0.007,0.354-0.001,0.529
	c-0.013,0.304,0.114,0.531,0.344,0.723c0.679,0.563,1.352,1.135,2.025,1.704c0.063,0.052,0.121,0.109,0.237,0.217
	c-0.153,0.033-0.256,0.086-0.348,0.071c-2.688-0.433-5.151,1.249-5.915,3.625c-0.005,0.017-0.02,0.03-0.041,0.063h-1.714
	c-1.208,0-2.416-0.01-3.623,0.007c-0.287,0.004-0.453-0.092-0.564-0.394c0.109,0,0.204,0.002,0.299,0
	c0.863-0.019,1.732,0.023,2.587-0.067c2.53-0.269,4.707-2.502,4.935-5.037c0.065-0.729,0.027-1.467,0.061-2.199
	c0.048-1.044,0.574-1.776,1.514-2.218C24.536,18.356,24.591,18.346,24.69,18.315"/>
<path fill="#FFFFFF" d="M29.797,29.08h-7.364c0.152-1.577,1.868-2.985,3.65-3.01C27.857,26.045,29.589,27.44,29.797,29.08"/>
<path fill="#5D5D5D" d="M6.341,29.843h5.296c-0.032,0.857-0.373,1.548-1.048,2.048c-0.876,0.646-1.835,0.732-2.804,0.24
	C6.878,31.671,6.418,30.892,6.341,29.843"/>
<path fill="#FFFFFF" d="M9.69,21.804c-0.112-0.729,0.336-1.308,1.044-1.314c1.327-0.015,2.653-0.014,3.979,0
	c0.708,0.007,1.136,0.555,1.049,1.314H9.69z"/>
<path fill="#5D5D5D" d="M23.645,30.64h4.923c-0.049,0.789-1.187,1.707-2.2,1.777C25.105,32.506,23.858,31.703,23.645,30.64"/>
<path fill="#FFFFFF" d="M27.927,17.387c-0.285-0.15-0.53-0.279-0.816-0.43c0.29-0.153,0.529-0.279,0.816-0.43V17.387z"/>
</svg>
