<?xml version="1.0" encoding="utf-8"?>
<!-- Generator: Adobe Illustrator 16.0.0, SVG Export Plug-In . SVG Version: 6.00 Build 0)  -->
<!DOCTYPE svg PUBLIC "-//W3C//DTD SVG 1.1//EN" "http://www.w3.org/Graphics/SVG/1.1/DTD/svg11.dtd">
<svg version="1.1" id="Capa_1" xmlns="http://www.w3.org/2000/svg" xmlns:xlink="http://www.w3.org/1999/xlink" x="0px" y="0px"
	 width="36px" height="48px" viewBox="0 0 36 48" enable-background="new 0 0 36 48" xml:space="preserve">
<path fill="#FFFFFF" d="M17.754,29.067c-5.443-0.238-9.232-4.813-9.031-9.714c0.226-5.478,4.853-9.253,9.741-9.039
	c5.423,0.238,9.223,4.821,9.011,9.731C27.241,25.498,22.64,29.265,17.754,29.067"/>
<path fill="#211915" d="M19.016,6.716c0.363,0.062,0.726,0.124,1.089,0.184c3.182,0.523,5.803,2.046,7.867,4.502
	c1.565,1.863,2.482,4.027,2.865,6.439c0.406,2.559-0.229,4.923-1.183,7.247c-1.575,3.839-3.73,7.343-6.179,10.676
	c-1.239,1.688-2.539,3.326-4.114,4.723c-0.242,0.215-0.513,0.399-0.779,0.587c-0.383,0.271-0.79,0.287-1.157-0.004
	c-0.553-0.438-1.127-0.866-1.613-1.373c-2.736-2.86-4.956-6.102-6.936-9.515c-1.361-2.345-2.545-4.771-3.334-7.377
	c-0.884-2.923-0.572-5.758,0.675-8.5c1.375-3.022,3.625-5.184,6.654-6.531c1.208-0.537,2.481-0.847,3.795-0.992
	c0.108-0.012,0.215-0.045,0.323-0.068H19.016z M17.685,28.304c4.494,0.183,8.726-3.283,8.942-8.299
	c0.195-4.516-3.3-8.731-8.289-8.95c-4.495-0.197-8.752,3.276-8.959,8.314C9.194,23.877,12.679,28.086,17.685,28.304"/>
<text transform="matrix(1 0 0 1 14.168 22.8594)" fill="#5D5D5D" font-family="'MyriadPro-BoldIt'" font-size="11.9177">A</text>
</svg>
