<?xml version="1.0" encoding="utf-8"?>
<!-- Generator: Adobe Illustrator 16.0.0, SVG Export Plug-In . SVG Version: 6.00 Build 0)  -->
<!DOCTYPE svg PUBLIC "-//W3C//DTD SVG 1.1//EN" "http://www.w3.org/Graphics/SVG/1.1/DTD/svg11.dtd">
<svg version="1.1" id="Capa_1" xmlns="http://www.w3.org/2000/svg" xmlns:xlink="http://www.w3.org/1999/xlink" x="0px" y="0px"
	 width="36px" height="48px" viewBox="0 0 36 48" enable-background="new 0 0 36 48" xml:space="preserve">
<path fill="#211915" d="M7.742,4.81c1.333,0,1.416,1.267,1.412,1.738c0,0.237,0.003,0.475,0,0.712
	C9.153,7.323,9.168,7.359,9.232,7.389c1.275,0.58,2.551,1.164,3.826,1.745c1.88,0.857,3.762,1.714,5.642,2.572
	c1.852,0.843,3.701,1.689,5.553,2.533c1.465,0.668,2.93,1.336,4.396,2.003c1.432,0.654,2.864,1.306,4.296,1.958
	c0.054,0.025,0.105,0.052,0.176,0.085c-0.337,0.154-0.655,0.301-0.977,0.447c-0.977,0.445-1.953,0.89-2.93,1.335
	c-1.606,0.731-3.215,1.463-4.821,2.196c-1.235,0.563-2.469,1.129-3.705,1.692c-1.428,0.652-2.858,1.301-4.286,1.953
	c-1.238,0.565-2.477,1.133-3.715,1.698c-1.141,0.521-2.281,1.04-3.425,1.556c-0.096,0.043-0.108,0.104-0.108,0.195
	c0.001,4.085,0.001,8.171,0.002,12.256c0,0.286-0.042,0.557-0.18,0.813c-0.292,0.547-0.924,0.851-1.544,0.741
	c-0.604-0.107-1.089-0.597-1.179-1.196c-0.018-0.106-0.024-0.216-0.024-0.323C6.228,30.008,6.228,18.369,6.228,6.727
	c0-0.195,0.013-0.326,0.024-0.543C6.256,6.12,6.263,6.057,6.274,5.993C6.326,5.687,6.501,4.81,7.742,4.81"/>
<polygon fill="#FFFFFF" points="9.168,9.86 27.599,18.336 9.309,25.859 "/>
<text transform="matrix(1 0 0 1 10.6826 22.5552)" fill="#5D5D5D" font-family="'MyriadPro-BoldIt'" font-size="12.6521">B</text>
</svg>
