<?xml version="1.0" encoding="utf-8"?>
<!-- Generator: Adobe Illustrator 16.0.0, SVG Export Plug-In . SVG Version: 6.00 Build 0)  -->
<!DOCTYPE svg PUBLIC "-//W3C//DTD SVG 1.1//EN" "http://www.w3.org/Graphics/SVG/1.1/DTD/svg11.dtd">
<svg version="1.1" id="Capa_1" xmlns="http://www.w3.org/2000/svg" xmlns:xlink="http://www.w3.org/1999/xlink" x="0px" y="0px"
	 width="592px" height="120px" viewBox="0 0 592 120" enable-background="new 0 0 592 120" xml:space="preserve">
<path fill="#211915" d="M241.357,38.072c-0.521-2.023-1.407-3.726-2.705-5.186c-0.46-0.518-1.058-0.928-1.646-1.305
	c-0.15-0.097-0.581,0.044-0.748,0.21c-0.576,0.57-1.227,0.744-2.028,0.742c-11.601-0.021-23.201-0.018-34.802-0.019
	c-1.425,0-2.417-0.862-2.431-2.299c-0.04-4.06-0.039-8.12-0.003-12.18c0.012-1.479,0.915-2.396,2.395-2.577
	c3.852-0.472,7.704-0.947,11.559-1.384c3.619-0.411,7.249-0.728,10.864-1.174c3.979-0.491,7.956-1.019,11.914-1.656
	c2.119-0.34,3.043,0.724,3.095,2.739c0.083,3.259-0.052,6.523-0.077,9.786c-0.007,0.912,0.013,1.828,0.1,2.734
	c0.02,0.213,0.327,0.449,0.556,0.581c0.583,0.336,1.208,0.601,1.798,0.926c2.823,1.553,4.418,4.078,5.515,6.996
	c0.19,0.508,0.356,1.036,0.632,1.495c0.167,0.277,0.506,0.591,0.801,0.63c1.877,0.242,2.789,1.184,3.113,3.012
	c0.479,2.708,1.092,5.392,1.625,8.09c0.283,1.433,0.502,2.878,0.777,4.313c0.274,1.429,0.506,2.874,0.895,4.272
	c0.406,1.468-0.348,2.963-1.848,3.302c-3.342,0.755-6.686,1.502-10.033,2.233c-1.023,0.224-2.06,0.389-3.093,0.569
	c-1.579,0.275-2.881-0.787-3.148-2.398c-0.373-2.242-0.826-4.472-1.297-6.695c-0.472-2.227-1.069-4.429-1.486-6.666
	c-0.164-0.879-0.69-1.252-1.346-1.623c-2.902-1.643-6.062-1.472-9.162-1.069c-2.58,0.335-5.146,0.946-7.647,1.676
	c-2.704,0.789-5.449,1.142-8.226,1.208c-3.345,0.08-6.353-0.977-8.851-3.27c-0.308-0.283-0.574-0.722-0.641-1.125
	c-0.056-0.338,0.104-0.901,0.356-1.053c0.304-0.183,0.967-0.214,1.197-0.005c2.248,2.042,4.924,1.715,7.643,1.677
	c2.371-0.034,4.4-0.936,6.533-1.698c2.004-0.717,4.045-1.424,6.129-1.801c2.866-0.52,5.781-0.87,8.689-1.005
	c1.482-0.07,2.991,0.516,4.496,0.749c0.68,0.105,1.404,0.198,2.068,0.078c2.603-0.472,5.19-1.029,7.781-1.563
	C240.893,38.292,241.102,38.173,241.357,38.072"/>
<path fill="#211915" d="M374.987,32.522c-5.868,0-11.737,0.008-17.604-0.016c-0.449-0.001-0.961-0.132-1.333-0.375
	c-0.862-0.563-1.707-0.608-2.286,0.19c-1.027,1.417-2.002,2.878-2.891,4.385c-0.551,0.934-0.283,1.46,0.803,1.733
	c1.249,0.314,2.528,0.508,3.793,0.759c1.332,0.265,2.658,0.555,3.994,0.791c0.388,0.069,0.834,0.086,1.198-0.037
	c2.932-0.987,5.908-1.131,8.968-0.746c2.542,0.32,4.971,0.98,7.405,1.747c3.356,1.056,6.734,2.122,10.179,2.789
	c2.484,0.48,5.038,0.087,7.121-1.683c0.507-0.43,1.036-0.588,1.545-0.11c0.56,0.525,0.396,1.15-0.057,1.634
	c-1.787,1.91-3.91,3.302-6.556,3.572c-3.582,0.366-7.097,0.01-10.605-0.937c-4.392-1.186-8.824-2.392-13.462-1.872
	c-1.603,0.18-3.093,0.76-4.373,1.763c-0.296,0.232-0.546,0.646-0.623,1.016c-0.671,3.251-1.281,6.515-1.945,9.767
	c-0.311,1.523-0.557,3.083-1.096,4.527c-0.516,1.384-1.952,1.664-3.386,1.279c-1.633-0.438-3.353-0.543-5.016-0.883
	c-2.558-0.523-5.106-1.097-7.646-1.703c-1.128-0.27-1.914-1.272-1.777-2.399c0.22-1.814,0.583-3.613,0.913-5.413
	c0.28-1.534,0.593-3.061,0.896-4.59c0.211-1.065,0.433-2.128,0.646-3.193c0.351-1.764,0.687-3.531,1.048-5.292
	c0.187-0.911,1.334-2.085,2.329-2.016c1.253,0.088,1.506-0.727,1.736-1.525c0.705-2.447,2.003-4.565,3.826-6.257
	c1.081-1.003,2.579-1.551,3.866-2.342c0.256-0.157,0.577-0.487,0.578-0.74c0.018-2.659-0.034-5.319-0.044-7.979
	c-0.006-1.593,0.009-3.186,0.053-4.778c0.049-1.789,0.912-2.575,2.664-2.355c2.6,0.326,5.188,0.751,7.787,1.082
	c2.159,0.275,4.329,0.463,6.491,0.712c3.11,0.357,6.218,0.734,9.328,1.105c3.477,0.415,6.95,0.886,10.435,1.234
	c2.595,0.259,3.029,1.466,3.095,3.582c0.083,2.68,0.046,5.364,0.014,8.046c-0.014,1.19-0.092,2.385-0.235,3.566
	c-0.164,1.356-0.879,1.947-2.27,1.949c-5.834,0.009-11.668,0.004-17.503,0.004V32.522z"/>
<path fill="#211915" d="M271.698,65.415c0.669,1.609,1.275,3.07,1.886,4.53c0.312,0.746,0.59,1.51,0.957,2.229
	c0.473,0.928,18.727,2.375,19.759,2.351c5.958-0.138-10.493,2.651-10.532,3.733c-0.079,2.146-0.349,8.847-0.338,10.995
	c0.005,1.03-5.184-2.894-7.641-4.35c-3.743-2.217-6.722-4.394-8.512-8.135c-1.354-2.83-2.256-5.876-3.625-8.697
	c-1.239-2.553-2.811-4.949-4.294-7.379c-0.509-0.834-1.15-1.6-1.807-2.327c-1.193-1.319-1.036-3.019-1.381-4.575
	c-0.344-1.55-0.654-3.107-0.982-4.66c-0.028-0.132-0.123-0.257-0.124-0.386c-0.007-0.597,0.009-1.194,0.016-1.792
	c0.56,0.144,1.147,0.221,1.674,0.442c2.93,1.235,5.4,3.109,7.42,5.555c0.921,1.115,1.726,2.325,2.637,3.449
	c0.212,0.263,0.643,0.496,0.973,0.497c17.709,0.014,35.42,0.001,53.129-0.006c0.989,0,1.988,0.114,2.962,0.003
	c0.493-0.056,1.106-0.38,1.385-0.779c2.483-3.557,5.398-6.621,9.37-8.527c0.572-0.274,1.183-0.481,1.792-0.661
	c0.539-0.159,0.806,0.121,0.694,0.654c-0.675,3.22-1.363,6.437-2.062,9.651c-0.063,0.291-0.156,0.635-0.356,0.828
	c-2.7,2.587-4.304,5.91-6.014,9.132c-1.04,1.959-1.719,4.111-2.567,6.172c-1.174,2.852-2.342,5.719-4.54,7.977
	c-1.601,1.644-10.582,7.179-12.794,7.906c-0.682,0.224-5.395-4.059-5.405-4.681c-0.04-2.557,2.463-3.54,2.495-6.097
	c0.004-0.379-8.07-3.686-7.804-3.945c9.744-0.421,19.315-2.528,20.161-4.403c0.583-1.294,1.09-2.622,1.665-3.92
	c0.429-0.968-0.187-0.927-0.822-0.926c-4.641,0.009-9.281,0.016-13.921,0.016c-10.715,0.002-21.43-0.002-32.145,0.004
	C272.615,65.291,272.228,65.362,271.698,65.415"/>
<path fill="#211915" d="M295.917,89.4c-4.125,0-8.25-0.014-12.374,0.013c-0.762,0.005-1.061-0.145-1.052-1.017
	c0.047-4.26-14.568-15.036-14.59-19.296c-0.004-0.732,4.526-6.243,5.404-6.24c8.283,0.024,43.685-1.417,51.967-1.44
	c0.893-0.002-6.024,13.136-6.028,13.997c-0.02,4.227-9.721,8.775-9.688,13.001c0.007,0.88-0.452,0.996-1.163,0.993
	c-4.159-0.015-8.317-0.008-12.476-0.008V89.4z"/>
<path fill="#211915" d="M390.467,69.1c-1.017-0.056-1.661-0.437-2.111-1.319c-0.206-0.403-0.652-0.853-1.067-0.95
	c-3.236-0.759-6.495-1.42-9.74-2.146c-2.113-0.473-4.21-1.021-6.322-1.501c-1.914-0.436-3.837-0.827-5.757-1.237
	c-1.062-0.227-2.122-0.463-3.188-0.676c-0.667-0.132-0.679-0.607-0.568-1.096c0.286-1.255,0.657-2.492,0.906-3.753
	c0.315-1.596,0.58-3.205,0.798-4.817c0.191-1.41,0.381-1.528,1.746-1.229c2.251,0.494,4.53,0.868,6.782,1.36
	c1.919,0.419,3.811,0.962,5.725,1.401c2.244,0.515,4.503,0.965,6.75,1.468c1.189,0.266,2.364,0.599,3.552,0.87
	c0.793,0.18,1.596,0.326,2.401,0.432c0.178,0.023,0.424-0.15,0.576-0.296c0.757-0.729,1.689-0.874,2.544-0.434
	c0.831,0.426,1.416,1.241,1.25,2.259c-0.26,1.601-0.622,3.186-0.957,4.773c-0.278,1.326-0.513,2.665-0.894,3.961
	c-0.242,0.82-0.633,1.631-1.123,2.329C391.536,68.836,390.916,68.907,390.467,69.1"/>
<path fill="#211915" d="M224.93,62.168c-1.581,0.382-3.158,0.784-4.744,1.142c-2.315,0.521-4.642,0.993-6.956,1.518
	c-1.987,0.451-3.964,0.951-5.947,1.422c-1.024,0.244-2.06,0.443-3.07,0.731c-0.259,0.073-0.554,0.374-0.641,0.634
	c-0.478,1.424-2.515,1.966-3.432,0.732c-0.676-0.91-0.981-2.126-1.322-3.245c-0.464-1.521-1.019-3.062-1.136-4.625
	c-0.105-1.4-1.11-2.745-0.254-4.242c0.68-1.19,1.985-1.781,3.039-0.942c0.966,0.77,1.834,0.567,2.823,0.346
	c2.551-0.569,5.114-1.081,7.66-1.672c2.804-0.652,5.59-1.374,8.388-2.052c1.057-0.256,2.122-0.476,3.183-0.711
	c1.615-0.36,3.226-0.75,4.853-1.045c0.247-0.045,0.758,0.302,0.83,0.557c0.256,0.909,0.365,1.858,0.549,2.789
	c0.297,1.498,0.491,3.028,0.941,4.479c0.825,2.658,0.751,2.957-1.83,3.727c-0.944,0.282-1.926,0.439-2.891,0.654
	C224.958,62.3,224.944,62.234,224.93,62.168"/>
<g>
	<polygon fill="#F2F2F2" points="304.078,60.771 308.411,32.463 278.544,73.415 290.146,73.415 286.189,103.388 314.907,60.771 	"/>
	<path d="M309.4,56.201l5.191-33.917l-3.696-0.983l-41.339,56.685h15.377l-4.678,35.435l3.268,2.102l39.973-59.321H309.4z
		 M290.146,73.415h-11.602l29.866-40.952l-4.333,28.308h10.829l-28.718,42.617L290.146,73.415z"/>
</g>
<rect x="190.546" y="-54.748" fill="none" width="210.908" height="210.908"/>
</svg>
